<svg t="1728359981124" class="icon" viewBox="0 0 1024 1024" version="1.1" xmlns="http://www.w3.org/2000/svg" p-id="7313" width="200" height="200"><path d="M661.2 338.8c13.2 0 24 10.8 24 24v485.2c0 13.2-10.8 24-24 24H176c-13.2 0-24-10.8-24-24V362.8c0-13.2 10.8-24 24-24h485.2m0-56H176c-44.2 0-80 35.8-80 80v485.2c0 44.2 35.8 80 80 80h485.2c44.2 0 80-35.8 80-80V362.8c0-44.2-35.8-80-80-80z" p-id="7314"></path><path d="M848 96H362.8c-44.2 0-80 35.8-80 80v64.8h56v-64.8c0-13.2 10.8-24 24-24H848c13.2 0 24 10.8 24 24V661.2c0 13.2-10.8 24-24 24h-64.8v56H848c44.2 0 80-35.8 80-80v-485.2c0-44.2-35.8-80-80-80z" p-id="7315"></path></svg>