<svg t="1728365465452" class="icon" viewBox="0 0 1024 1024" version="1.1" xmlns="http://www.w3.org/2000/svg" p-id="8346" width="200" height="200"><path d="M922.857 262.329c9.31-34.999-11.31-70.97-46.054-80.348l-141.976-38.318a66.14 66.14 0 0 0-4.293-1.318 66 66 0 0 0-16.652-2.226c-18.895-0.227-36.789 7.913-49.166 21.76-0.314 0.349-0.633 0.691-0.94 1.047-0.06 0.07-0.116 0.143-0.175 0.213a64.69 64.69 0 0 0-13.29 25.235l-39.557 146.702c-9.363 34.724 11.374 70.414 46.317 79.72 34.941 9.304 70.857-11.302 80.22-46.026l6.282-23.299c22.498 39.98 35.358 86.099 35.358 135.249 0 152.782-123.856 276.636-276.636 276.636-152.784 0-276.636-123.854-276.636-276.636 0-76.392 30.962-145.549 81.025-195.611l-90.283-90.281C143.236 267.993 97.98 369.071 97.98 480.72c0 223.296 181.018 404.314 404.316 404.314 223.296 0 404.312-181.018 404.312-404.314 0-60.914-13.539-118.62-37.719-170.372 25.144-3.522 46.984-21.768 53.968-48.019zM359.855 669.771c22.044 7.82 46.309-2.962 54.202-24.082l21.888-58.57h132.703l21.888 58.57c7.891 21.12 32.158 31.903 54.202 24.082 22.042-7.818 33.513-31.281 25.619-52.401L544.481 280.54c-2.616-13.897-12.634-26.186-27.422-31.433a44.35 44.35 0 0 0-6.749-1.803l-0.063-0.011a43.719 43.719 0 0 0-1.907-0.31c-0.108-0.015-0.216-0.026-0.324-0.04a45.534 45.534 0 0 0-1.677-0.193c-0.195-0.018-0.392-0.028-0.587-0.044a40.53 40.53 0 0 0-1.43-0.096c-0.289-0.014-0.58-0.016-0.87-0.024-0.386-0.01-0.772-0.024-1.156-0.023-0.385 0-0.77 0.013-1.156 0.023-0.29 0.008-0.581 0.01-0.87 0.024-0.475 0.022-0.95 0.059-1.426 0.096-0.197 0.016-0.395 0.026-0.592 0.044-0.555 0.051-1.11 0.119-1.666 0.191-0.112 0.015-0.225 0.026-0.336 0.042-0.63 0.087-1.26 0.192-1.889 0.307l-0.083 0.014a44.39 44.39 0 0 0-6.743 1.802c-14.787 5.246-24.805 17.533-27.422 31.428L334.234 617.369c-7.893 21.12 3.577 44.583 25.621 52.402z m142.44-260.203l34.542 92.431h-69.084l34.542-92.431z" p-id="8347"></path><path d="M263.762 173.918c35.254 0 63.837 28.581 63.837 63.839 0 35.256-28.583 63.839-63.837 63.839-35.26 0-63.839-28.583-63.839-63.839 0-35.259 28.579-63.839 63.839-63.839z" p-id="8348"></path></svg>