<svg t="1767845715771" class="icon" viewBox="0 0 1024 1024" version="1.1" xmlns="http://www.w3.org/2000/svg" p-id="6699" width="50" height="50"><path d="M593.92 917.333333H204.373333c-35.413333 0-64-28.586667-64-64V170.666667c0-35.413333 28.586667-64 64-64h384V341.333333c0 11.946667 9.386667 21.333333 21.333334 21.333334h213.333333v95.146666c0 11.946667 9.386667 21.333333 21.333333 21.333334s21.333333-9.386667 21.333334-21.333334V341.333333c0-1.28-0.426667-2.133333-0.853334-3.413333s-0.426667-2.986667-0.853333-4.266667c-0.426667-1.706667-1.706667-2.986667-2.56-4.266666l-1.28-2.56-234.666667-256s-0.426667 0-0.426666-0.426667c-1.28-1.28-2.986667-2.133333-4.266667-3.413333-0.853333-0.426667-1.28-1.28-2.133333-1.706667a12.458667 12.458667 0 0 0-3.84-0.853333c-1.28-0.426667-2.56-0.853333-4.266667-0.853334H204.8a106.666667 106.666667 0 0 0-106.666667 106.666667v682.666667a106.666667 106.666667 0 0 0 106.666667 106.666666h389.546667c11.946667 0 21.333333-9.386667 21.333333-21.333333s-10.24-20.906667-21.76-20.906667z m37.12-777.386666l164.693333 180.053333h-164.693333V139.946667z" fill="#666666" p-id="6700"></path><path d="M247.04 448h128c11.946667 0 21.333333-9.386667 21.333333-21.333333s-9.386667-21.333333-21.333333-21.333334h-128c-11.946667 0-21.333333 9.386667-21.333333 21.333334s9.813333 21.333333 21.333333 21.333333zM247.04 616.106667h298.666667c11.946667 0 21.333333-9.386667 21.333333-21.333334s-9.386667-21.333333-21.333333-21.333333h-298.666667c-11.946667 0-21.333333 9.386667-21.333333 21.333333s9.813333 21.333333 21.333333 21.333334zM919.893333 678.4l-96-96c-8.533333-8.533333-21.76-8.533333-30.293333 0l-96 96c-8.533333 8.533333-8.533333 21.76 0 30.293333s21.76 8.533333 30.293333 0l59.733334-59.733333V896c0 11.946667 9.386667 21.333333 21.333333 21.333333s21.333333-9.386667 21.333333-21.333333v-247.04l59.733334 59.733333a20.693333 20.693333 0 0 0 29.866666 0c8.533333-8.533333 8.533333-22.186667 0-30.293333z" p-id="6701"></path></svg>