<svg t="1767927886471" class="icon" viewBox="0 0 1026 1024" version="1.1" xmlns="http://www.w3.org/2000/svg" p-id="11204" width="50" height="50"><path d="M107.52 104.96a90.24 90.24 0 0 0-12.8 128l720.64 718.72a14.08 14.08 0 0 0 12.8-5.76l120.32-120.32a16 16 0 0 0 5.76-12.8L233.6 92.16a90.24 90.24 0 0 0-128 12.8M56.32 53.76a162.56 162.56 0 0 1 228.48-12.8l721.28 721.28a81.92 81.92 0 0 1-6.4 114.56l-120.32 120.32a81.92 81.92 0 0 1-114.56 6.4L43.52 282.24A162.56 162.56 0 0 1 56.32 53.76z" p-id="11205"></path><path d="M267.904 412.48l168.768-168.768 78.336 78.272L346.176 490.88zM869.12 128H768V26.88a32.64 32.64 0 0 0-64 0V128H602.88a29.44 29.44 0 0 0-26.88 32 29.44 29.44 0 0 0 26.88 32H704v101.12a32.64 32.64 0 0 0 64 0V192h101.12a29.44 29.44 0 0 0 26.88-32 29.44 29.44 0 0 0-26.88-32zM293.12 704H192V602.88A29.44 29.44 0 0 0 160 576a29.44 29.44 0 0 0-32 26.88V704H26.88a32.64 32.64 0 0 0 0 64H128v101.12a29.44 29.44 0 0 0 32 26.88 29.44 29.44 0 0 0 32-26.88V768h101.12a32.64 32.64 0 0 0 0-64z" p-id="11206"></path><path d="M403.84 960a64 64 0 0 1 64-64 64 64 0 0 1 64 64 64 64 0 0 1-64 64 64 64 0 0 1-64-64z" p-id="11207"></path><path d="M832 467.2a96 96 0 0 1 96-96A96 96 0 0 1 1024 467.2a96 96 0 0 1-96 96A96 96 0 0 1 832 467.2z" p-id="11208"></path></svg>